<?xml version="1.0" standalone="no"?>
<!DOCTYPE svg PUBLIC "-//W3C//DTD SVG 20010904//EN"
 "http://www.w3.org/TR/2001/REC-SVG-20010904/DTD/svg10.dtd">
<svg version="1.0" xmlns="http://www.w3.org/2000/svg"
 width="260.000000pt" height="260.000000pt" viewBox="0 0 260.000000 260.000000"
 preserveAspectRatio="xMidYMid meet">
<metadata>
Created by potrace 1.14, written by Peter Selinger 2001-2017
</metadata>
<g transform="translate(0.000000,260.000000) scale(0.100000,-0.100000)"
fill="#000000" stroke="none">
<path d="M147 2152 c-29 -2 -37 -7 -33 -18 3 -8 0 -14 -7 -14 -7 0 -8 -3 -2
-8 14 -10 14 -52 1 -52 -6 0 -4 -5 4 -10 12 -8 12 -10 1 -10 -11 0 -11 -3 0
-16 12 -15 11 -16 -11 -10 -18 5 -21 4 -11 -3 16 -10 27 -56 12 -46 -5 3 -13
1 -16 -5 -4 -6 -1 -9 6 -8 8 2 13 -9 15 -29 1 -18 -1 -31 -5 -29 -4 3 -7 -4
-7 -15 0 -12 5 -18 13 -14 10 3 11 0 4 -14 -7 -12 -6 -22 2 -31 9 -10 9 -11 0
-6 -7 4 -13 3 -13 -3 0 -6 -8 -8 -17 -5 -17 5 -17 5 0 -6 9 -6 23 -8 30 -4 9
6 9 4 1 -7 -6 -8 -10 -41 -9 -74 1 -41 -3 -66 -14 -78 -13 -16 -13 -17 0 -12
19 7 22 -23 5 -44 -8 -12 -8 -13 2 -7 9 6 11 1 8 -18 -3 -14 0 -28 5 -32 6 -3
6 -11 1 -17 -5 -7 -8 -31 -7 -54 1 -25 -2 -40 -7 -37 -6 4 -5 -4 2 -16 11 -20
10 -21 -9 -15 -12 4 -21 2 -21 -4 0 -6 3 -10 8 -10 28 5 52 -24 30 -37 -6 -4
-8 -3 -4 4 3 6 1 14 -5 18 -8 5 -9 3 -4 -6 6 -10 4 -12 -8 -7 -9 3 -19 1 -23
-6 -4 -7 -4 -9 1 -5 12 11 42 -9 48 -31 3 -14 1 -18 -9 -14 -8 3 -11 9 -8 14
3 5 -2 6 -12 2 -14 -5 -15 -7 -1 -15 10 -5 14 -15 10 -26 -6 -15 -5 -16 12 -2
17 14 18 14 8 -4 -7 -13 -8 -29 -2 -43 5 -13 5 -23 -1 -23 -4 0 -11 8 -14 18
-2 9 -4 6 -3 -8 2 -15 8 -24 15 -22 8 1 10 -2 7 -8 -4 -6 -14 -9 -24 -6 -9 4
-5 -3 9 -14 l25 -21 -25 6 c-21 5 -22 4 -7 -5 20 -13 25 -76 5 -64 -10 6 -9 3
0 -8 10 -13 11 -22 2 -37 -8 -16 -7 -26 6 -46 9 -14 12 -25 6 -25 -6 0 -13 8
-16 18 -2 9 -4 6 -3 -8 2 -14 8 -24 14 -23 6 1 9 -6 6 -17 -3 -11 -9 -18 -13
-15 -5 3 -12 0 -16 -6 -5 -8 -3 -9 6 -4 10 6 12 4 7 -8 -3 -10 -2 -17 3 -17 6
0 10 5 10 12 0 6 3 8 6 5 4 -4 1 -13 -5 -21 -7 -8 -8 -17 -3 -20 10 -6 8 -40
-4 -70 -6 -15 -4 -17 7 -11 11 6 12 5 2 -5 -8 -9 -9 -19 -2 -32 6 -11 6 -18 0
-18 -5 0 -12 8 -15 17 -2 10 -4 7 -3 -7 2 -14 7 -24 13 -23 5 1 10 -7 10 -17
0 -10 -3 -17 -7 -14 -4 2 -10 -4 -13 -13 -4 -10 -4 -14 0 -10 8 8 44 -31 44
-47 0 -6 -7 -2 -16 9 -15 20 -15 20 -5 -34 1 -2 9 3 18 10 15 12 16 12 10 -3
-7 -21 17 -38 44 -31 23 6 25 20 4 20 -8 0 -15 -5 -15 -11 0 -6 -4 -5 -9 3
-12 19 -3 39 23 52 19 9 19 9 4 -4 -17 -14 -13 -30 11 -35 9 -2 11 3 7 15 -6
17 -5 17 8 -1 9 -11 19 -15 28 -10 22 14 37 13 31 -2 -4 -10 0 -12 11 -8 9 3
13 11 9 17 -3 6 4 3 16 -6 13 -8 30 -13 37 -10 17 6 19 -13 2 -23 -7 -5 -8 -3
-3 6 5 9 4 11 -4 6 -6 -4 -18 -2 -26 4 -8 7 -15 8 -15 3 0 -5 -9 -9 -20 -10
-12 -1 -20 4 -20 13 0 8 -5 12 -10 9 -6 -4 -8 -10 -6 -14 3 -4 -1 -8 -9 -8 -8
0 -15 5 -15 11 0 12 -20 -14 -20 -27 0 -4 8 -7 17 -5 11 2 17 -2 15 -10 -1 -8
2 -11 8 -7 6 3 8 10 5 15 -3 5 -1 11 5 15 5 3 10 1 10 -5 0 -6 4 -8 10 -5 9 6
14 -8 11 -28 -1 -5 3 -6 8 -2 6 3 7 13 4 23 -5 15 -3 14 18 -3 l24 -20 -19 23
c-19 22 -10 32 12 10 8 -8 15 -8 28 3 15 12 16 11 11 -11 -4 -14 -4 -19 -1
-12 3 6 10 12 15 12 6 0 7 -4 4 -10 -3 -5 -1 -10 4 -10 14 0 14 13 -1 28 -7 7
-8 12 -2 12 5 0 15 -5 22 -12 8 -8 15 -8 27 2 17 14 21 0 5 -16 -7 -7 -6 -11
4 -11 8 0 13 4 10 8 -9 15 22 16 41 0 17 -14 18 -14 7 0 -12 16 -7 29 10 29 5
0 6 -5 2 -12 -5 -7 -3 -8 7 -2 22 14 60 16 74 4 9 -8 15 -8 20 0 6 10 -1 14
-18 11 -5 -1 -5 4 -1 10 4 7 0 9 -13 5 -24 -8 -51 18 -32 30 7 4 9 3 5 -4 -10
-17 12 -24 36 -11 13 6 20 8 16 4 -11 -12 12 -36 26 -28 6 4 3 -5 -6 -19 -16
-24 -16 -26 -1 -24 9 2 18 14 20 27 2 13 4 29 5 36 1 8 8 8 25 0 26 -12 30
-24 8 -24 -8 0 -12 4 -9 9 3 4 1 8 -4 8 -14 0 -23 -28 -12 -35 5 -3 11 -1 15
5 7 12 25 4 25 -11 0 -6 -4 -8 -8 -5 -5 3 -9 -2 -9 -11 0 -13 4 -12 17 5 13
16 20 18 29 9 8 -8 11 -8 11 1 0 7 -5 12 -11 12 -5 0 -7 6 -3 13 6 9 4 9 -7 2
-8 -5 -7 -3 3 6 9 9 15 18 13 21 -2 2 4 4 15 4 10 0 16 -4 14 -8 -6 -9 5 -11
49 -10 28 1 36 -11 15 -24 -6 -4 -8 -3 -5 2 3 6 -9 9 -26 9 -18 -1 -35 3 -39
9 -4 6 -11 7 -15 2 -4 -5 -2 -11 5 -13 6 -3 9 -10 5 -16 -5 -9 -3 -9 8 -1 16
12 29 12 47 0 8 -4 20 -2 29 6 14 11 15 10 10 -12 -4 -14 -4 -19 -1 -12 3 6
10 12 15 12 6 0 7 -4 4 -10 -3 -5 -1 -10 4 -10 14 0 14 13 -1 28 -7 7 -8 12
-2 12 5 0 15 -5 22 -12 8 -8 15 -8 27 2 17 14 21 0 5 -16 -7 -7 -6 -11 4 -11
8 0 13 4 10 9 -3 4 0 8 5 8 21 0 26 -5 25 -23 -1 -10 1 -15 5 -12 3 4 6 16 6
28 0 11 6 22 14 25 9 3 11 0 6 -8 -6 -10 -4 -11 6 -4 22 14 60 16 74 4 9 -8
15 -8 20 0 3 6 11 8 16 4 5 -3 -1 -15 -13 -26 -21 -18 -21 -18 9 1 22 15 34
18 39 10 5 -8 10 -6 16 6 7 11 6 21 -2 28 -8 9 -10 8 -5 -6 4 -10 2 -17 -5
-17 -6 0 -8 5 -4 12 4 7 3 8 -4 4 -7 -4 -12 -2 -12 3 0 12 0 12 45 16 17 1 30
3 30 4 0 2 8 4 17 6 11 2 15 -2 11 -11 -4 -10 0 -12 11 -8 9 3 14 9 11 13 -2
4 2 8 8 8 7 0 14 -10 15 -21 1 -17 -1 -18 -8 -6 -8 12 -10 13 -10 1 0 -8 -3
-11 -6 -8 -4 3 -15 2 -24 -3 -15 -8 -17 -6 -12 12 3 15 2 19 -7 14 -6 -4 -9
-11 -6 -16 3 -5 0 -12 -6 -16 -7 -4 -9 -3 -5 4 3 6 1 14 -5 17 -7 5 -10 1 -7
-11 1 -9 7 -16 12 -15 5 2 13 -3 17 -11 7 -11 9 -11 9 1 0 11 3 11 15 1 8 -7
12 -17 8 -23 -4 -6 -1 -7 6 -2 9 5 10 10 2 18 -16 16 -14 32 2 18 10 -8 17 -7
25 1 8 8 14 5 21 -15 13 -32 21 -36 13 -5 -3 14 -1 19 6 14 6 -3 13 -2 17 4 7
12 25 4 25 -11 0 -6 -4 -8 -9 -4 -5 3 -12 1 -15 -4 -4 -5 1 -8 10 -7 8 1 19 8
24 15 6 10 10 9 19 -5 9 -17 10 -17 11 -1 0 9 -5 17 -11 17 -5 0 -7 5 -4 10
10 17 35 -8 28 -28 -3 -9 3 -6 12 7 17 23 19 23 32 6 7 -11 13 -13 13 -6 0 7
4 10 9 6 5 -3 13 0 17 6 5 9 11 7 21 -6 7 -11 13 -13 13 -6 0 7 4 10 9 6 5 -3
13 0 17 6 5 9 11 7 21 -6 13 -19 18 -11 13 25 -1 10 3 9 14 -5 8 -11 16 -25
16 -32 0 -6 4 -14 9 -17 5 -4 7 4 3 16 -3 14 -1 19 6 14 6 -3 13 -2 17 4 7 12
25 4 25 -11 0 -6 -4 -8 -9 -4 -5 3 -12 1 -15 -4 -4 -5 1 -8 10 -7 8 1 19 8 24
15 6 10 10 9 19 -5 9 -17 10 -17 11 -1 0 9 -5 17 -11 17 -5 0 -7 5 -4 10 10
17 35 -8 28 -28 -3 -9 3 -6 12 7 17 23 19 23 32 6 7 -11 13 -13 13 -6 0 7 4
10 9 6 5 -3 13 0 17 6 5 9 11 7 21 -6 7 -11 13 -13 13 -6 0 7 4 10 9 6 5 -3
13 0 17 6 5 9 11 7 21 -6 7 -11 13 -13 13 -6 0 7 4 10 9 6 6 -3 8 -15 6 -27
-3 -11 -1 -17 3 -14 4 4 7 17 7 29 0 11 6 22 14 25 9 3 11 0 6 -8 -6 -10 -4
-11 6 -4 22 14 60 16 74 4 9 -8 15 -8 20 0 3 6 11 8 16 4 5 -3 -1 -15 -13 -26
-21 -18 -21 -18 9 1 22 15 34 18 39 10 5 -8 10 -6 16 6 7 11 6 21 -2 28 -8 9
-10 8 -5 -5 4 -11 2 -18 -5 -18 -6 0 -8 5 -4 12 4 7 3 8 -4 4 -7 -4 -12 -2
-12 3 0 12 0 12 45 16 17 1 30 3 30 4 0 2 8 4 17 6 11 2 15 -2 11 -11 -4 -10
0 -12 11 -8 9 3 13 11 9 17 -3 6 4 3 16 -6 13 -8 30 -13 37 -10 8 3 14 1 14
-4 0 -13 -32 -13 -47 0 -9 6 -13 5 -13 -3 0 -8 -3 -10 -6 -7 -4 3 -15 2 -24
-3 -15 -8 -17 -6 -12 12 3 15 2 19 -7 14 -6 -4 -9 -11 -6 -16 3 -5 0 -12 -6
-16 -7 -4 -9 -3 -5 4 3 6 1 14 -5 17 -7 5 -10 1 -7 -9 1 -10 7 -16 12 -16 5 1
13 -4 17 -12 7 -11 9 -11 9 1 0 11 3 11 15 1 8 -7 12 -17 8 -23 -4 -6 -1 -7 6
-2 9 5 10 10 2 18 -21 21 -11 30 11 11 19 -15 20 -16 9 -1 -15 19 -2 24 17 5
8 -8 15 -8 28 3 16 12 17 12 11 -5 -7 -18 -6 -18 19 -1 22 14 26 14 21 3 -8
-23 38 -11 60 15 14 17 14 19 1 9 -9 -7 -18 -9 -20 -5 -3 4 -3 2 -2 -5 2 -6
-4 -12 -12 -12 -8 0 -13 4 -10 9 3 5 -8 7 -24 6 -17 -1 -30 1 -30 6 0 5 12 9
28 9 64 0 72 2 67 10 -3 5 0 12 6 16 8 4 9 3 5 -5 -4 -6 0 -14 9 -17 14 -6 13
-10 -7 -32 -18 -21 -19 -24 -3 -12 26 20 35 32 29 42 -3 5 8 13 25 19 35 12
35 13 21 39 -7 13 -7 21 0 25 5 3 10 11 10 16 0 6 -4 7 -10 4 -6 -4 -7 1 -3
11 6 16 7 15 20 -2 7 -10 13 -13 13 -6 0 6 -10 18 -22 26 -13 9 -17 16 -9 16
11 0 11 3 0 17 -8 9 -9 14 -4 11 6 -4 17 3 25 15 12 19 11 21 -2 10 -8 -7 -18
-10 -22 -6 -4 4 4 13 16 21 13 7 15 11 6 8 -20 -6 -34 9 -18 19 5 3 10 11 10
16 0 6 -4 7 -10 4 -6 -3 -7 1 -4 10 5 13 9 13 23 3 14 -11 14 -11 3 4 -10 13
-10 17 0 22 7 3 2 4 -12 1 -14 -3 -19 -2 -12 1 10 5 10 9 0 22 -7 9 -8 13 -3
10 6 -4 17 3 25 15 12 19 11 21 -2 10 -8 -7 -18 -10 -22 -6 -4 4 4 13 16 21
13 7 15 11 6 8 -20 -6 -34 9 -18 19 5 3 10 11 10 16 0 6 -4 7 -10 4 -6 -3 -7
1 -4 10 5 13 9 13 23 3 14 -11 14 -11 3 4 -10 13 -10 17 0 22 7 3 2 4 -12 1
-14 -3 -19 -2 -12 1 10 5 10 9 0 22 -7 9 -8 13 -3 10 6 -4 17 3 25 15 12 19
11 21 -2 10 -8 -7 -18 -10 -22 -6 -4 4 4 13 16 21 13 7 16 11 6 8 -27 -8 -29
5 -6 38 19 27 19 29 2 14 -18 -16 -19 -15 -19 18 0 31 6 39 28 35 5 -1 6 3 2
9 -3 6 -11 7 -17 4 -7 -4 -7 0 0 12 11 22 5 47 -10 38 -5 -4 -2 6 8 22 18 28
18 29 0 14 -18 -14 -19 -14 -6 9 12 23 13 24 26 6 11 -15 11 -22 1 -34 -11
-14 -10 -14 6 -2 15 12 16 16 4 35 -8 12 -20 22 -26 22 -22 3 -23 4 -14 17 6
6 13 22 15 34 5 17 2 20 -11 16 -13 -4 -14 -3 -2 5 11 8 12 14 4 24 -6 8 -7
21 -2 33 12 31 11 47 -3 39 -10 -6 -10 -4 -2 7 6 8 14 24 16 36 5 17 2 20 -11
16 -13 -4 -14 -3 -2 5 11 8 12 14 4 24 -6 8 -7 21 -2 33 12 31 11 47 -3 39
-10 -6 -10 -4 -2 7 6 8 14 24 16 36 5 17 2 20 -11 16 -13 -4 -14 -3 -2 5 11 8
12 14 3 24 -7 8 -7 19 -2 28 6 9 4 20 -3 29 -9 11 -9 13 0 8 8 -5 11 0 10 13
-1 11 -6 20 -12 20 -5 0 -3 5 5 10 12 8 13 11 1 19 -11 7 -11 9 0 14 11 3 11
7 2 17 -8 9 -8 20 -1 41 7 21 7 33 -1 42 -8 10 -7 17 1 25 9 9 9 12 -3 12 -12
0 -12 2 1 10 8 5 10 10 4 10 -6 0 -10 12 -8 26 1 15 0 32 -2 39 -6 14 -44 28
-44 15 0 -4 -18 -4 -40 0 -25 5 -40 4 -40 -3 0 -5 -7 -4 -15 3 -11 9 -15 9
-15 1 0 -7 -5 -9 -12 -5 -15 9 -58 12 -58 4 0 -4 -22 -4 -49 0 -27 3 -58 3
-70 -2 -12 -4 -21 -4 -21 0 0 8 -124 7 -146 -2 -7 -3 -14 -2 -14 2 0 8 -204 6
-226 -2 -8 -3 -14 -2 -14 2 0 8 -284 6 -306 -2 -8 -3 -14 -2 -14 2 0 8 -204 6
-226 -2 -8 -3 -14 -2 -14 2 0 8 -124 7 -146 -2 -7 -3 -14 -2 -14 2 0 4 -18 7
-40 7 -22 0 -40 -4 -40 -9 0 -5 -7 -3 -15 4 -11 9 -15 9 -15 1 0 -7 -5 -9 -12
-5 -17 11 -58 11 -58 1 0 -4 -5 -5 -10 -2 -14 8 -186 9 -199 0 -6 -3 -11 -3
-11 2 0 4 -36 8 -80 8 -44 0 -80 -4 -80 -9 0 -5 -7 -3 -15 4 -11 9 -15 9 -15
1 0 -7 -5 -9 -12 -5 -15 9 -58 12 -58 4 0 -4 -22 -4 -49 0 -27 3 -57 3 -67 -1
-11 -3 -21 -4 -24 0 -3 3 -22 5 -43 3z m-34 -1147 c-3 -9 -8 -14 -10 -11 -3 3
-2 9 2 15 9 16 15 13 8 -4z m2358 -390 c0 -5 -5 -11 -12 -14 -7 -2 -9 2 -5 10
4 8 -2 3 -14 -11 -18 -21 -20 -21 -11 -4 6 12 8 24 5 26 -2 3 5 5 16 4 11 0
21 -5 21 -11z m-2308 -10 c-3 -9 -8 -14 -10 -11 -3 3 -2 9 2 15 9 16 15 13 8
-4z m243 -7 c4 -7 4 -10 -1 -6 -4 4 -15 2 -24 -5 -14 -11 -14 -10 -2 6 16 20
18 21 27 5z m74 8 c0 -2 -8 -10 -17 -17 -16 -13 -17 -12 -4 4 13 16 21 21 21
13z m406 -8 c4 -7 4 -10 -1 -6 -4 4 -15 2 -24 -5 -14 -11 -14 -10 -2 6 16 20
18 21 27 5z m74 8 c0 -2 -8 -10 -17 -17 -16 -13 -17 -12 -4 4 13 16 21 21 21
13z m206 -8 c4 -7 4 -10 -1 -6 -4 4 -15 2 -24 -5 -14 -11 -14 -10 -2 6 16 20
18 21 27 5z m164 8 c0 -2 -7 -7 -16 -10 -8 -3 -12 -2 -9 4 6 10 25 14 25 6z
m80 -6 c0 -5 -2 -10 -4 -10 -3 0 -8 5 -11 10 -3 6 -1 10 4 10 6 0 11 -4 11
-10z m34 -22 c-2 -44 -1 -43 -23 -24 -17 15 -19 15 -32 0 -12 -15 -14 -15 -25
0 -10 14 -12 14 -17 2 -8 -20 -40 -14 -43 8 -1 10 0 15 3 12 4 -3 13 0 22 7
14 10 14 10 3 -5 -8 -10 -9 -19 -3 -22 5 -4 12 3 16 14 6 18 26 29 24 13 -1
-5 -1 -15 0 -23 1 -12 3 -13 10 -1 5 7 19 14 32 15 13 0 25 7 25 14 4 37 11
28 8 -10z m46 28 c0 -2 -7 -7 -16 -10 -8 -3 -12 -2 -9 4 6 10 25 14 25 6z
m160 0 c0 -2 -7 -7 -16 -10 -8 -3 -12 -2 -9 4 6 10 25 14 25 6z m80 -6 c0 -5
-2 -10 -4 -10 -3 0 -8 5 -11 10 -3 6 -1 10 4 10 6 0 11 -4 11 -10z m34 -22
c-2 -44 -1 -43 -23 -24 -17 15 -19 15 -32 0 -12 -15 -14 -15 -25 0 -10 14 -12
14 -17 2 -8 -20 -40 -14 -43 8 -1 10 0 15 3 12 4 -3 13 0 22 7 14 10 14 10 3
-5 -8 -10 -9 -19 -3 -22 5 -4 12 3 16 14 6 18 26 29 24 13 -1 -5 -1 -15 0 -23
1 -12 3 -13 10 -1 5 7 19 14 32 15 13 0 25 7 25 14 4 37 11 28 8 -10z m46 28
c0 -2 -7 -7 -16 -10 -8 -3 -12 -2 -9 4 6 10 25 14 25 6z m316 -8 c4 -7 4 -10
-1 -6 -4 4 -15 2 -24 -5 -14 -11 -14 -10 -2 6 16 20 18 21 27 5z m222 -9 c3
-11 2 -12 -6 -1 -13 19 -16 19 -38 2 -17 -14 -18 -14 -6 2 15 19 44 17 50 -3z
m42 17 c0 -3 -4 -8 -10 -11 -5 -3 -10 -1 -10 4 0 6 5 11 10 11 6 0 10 -2 10
-4z m-1345 -15 c-9 -16 13 -23 36 -10 13 6 19 7 15 1 -3 -6 -2 -13 4 -17 6 -4
8 -11 4 -16 -3 -5 -10 -7 -15 -3 -5 3 -6 10 -3 16 5 8 1 9 -11 5 -19 -8 -48
10 -39 24 3 5 7 9 10 9 3 0 3 -4 -1 -9z m960 0 c-9 -16 13 -23 36 -10 13 6 19
7 15 1 -3 -6 -2 -13 4 -17 6 -4 8 -11 4 -16 -3 -5 -10 -7 -15 -3 -5 3 -6 10
-3 16 5 8 1 9 -11 5 -19 -8 -48 10 -39 24 3 5 7 9 10 9 3 0 3 -4 -1 -9z
m-1470 -10 c-3 -2 3 -10 13 -18 13 -10 14 -13 2 -11 -8 2 -18 8 -23 13 -4 6
-11 4 -17 -7 -11 -18 -42 -18 -48 1 -2 7 2 12 9 10 25 -3 40 1 35 9 -2 4 4 8
14 8 11 0 17 -2 15 -5z m115 -1 c0 -5 -4 -10 -10 -10 -5 0 -10 5 -10 10 0 6 5
10 10 10 6 0 10 -4 10 -10z m365 1 c-3 -2 3 -10 13 -18 13 -10 14 -13 2 -11
-8 2 -18 8 -23 13 -4 6 -11 4 -17 -7 -11 -18 -42 -18 -48 1 -2 7 2 12 9 10 25
-3 40 1 35 9 -2 4 4 8 14 8 11 0 17 -2 15 -5z m114 -21 c11 -24 11 -24 -3 -6
-9 11 -16 24 -16 30 0 12 5 7 19 -24z m362 16 c-8 -9 -8 -16 -2 -20 5 -4 12 3
16 14 3 11 11 20 16 20 14 0 11 -9 -8 -28 -23 -23 -45 -22 -49 1 -1 9 2 15 6
12 5 -3 11 -1 15 5 3 5 9 10 12 10 3 0 0 -6 -6 -14z m104 -24 c4 -12 2 -12 -8
-4 -8 7 -17 9 -21 5 -11 -12 -36 -12 -43 -1 -3 7 -1 8 5 4 11 -6 16 5 13 26
-2 13 48 -14 54 -30z m216 24 c-8 -9 -8 -16 -2 -20 5 -4 12 3 16 14 3 11 11
20 16 20 14 0 11 -9 -8 -28 -23 -23 -45 -22 -49 1 -1 9 2 15 6 12 5 -3 11 -1
15 5 3 5 9 10 12 10 3 0 0 -6 -6 -14z m99 -18 c0 -4 9 -3 19 4 11 7 18 15 16
18 -2 3 5 6 15 6 11 0 17 -2 15 -5 -3 -2 3 -10 13 -18 13 -10 14 -13 2 -11 -8
2 -18 8 -22 13 -5 6 -11 5 -17 -4 -11 -17 -39 -23 -47 -10 -3 5 -11 6 -17 2
-19 -12 -36 -12 -44 -1 -3 7 -1 8 5 4 11 -6 16 5 13 26 0 4 10 2 24 -4 14 -6
25 -15 25 -20z m179 2 c11 -24 11 -24 -3 -6 -9 11 -16 24 -16 30 0 12 5 7 19
-24z m-1642 -4 c-3 -6 -11 -9 -18 -7 -8 2 -22 4 -31 5 -10 0 -18 4 -18 8 0 4
16 7 35 6 21 -1 34 -6 32 -12z m480 0 c-3 -6 -11 -9 -18 -7 -8 2 -22 4 -31 5
-10 0 -18 4 -18 8 0 4 16 7 35 6 21 -1 34 -6 32 -12z"/>
<path d="M1550 559 c0 -5 5 -7 10 -4 6 3 10 8 10 11 0 2 -4 4 -10 4 -5 0 -10
-5 -10 -11z"/>
<path d="M1870 559 c0 -5 5 -7 10 -4 6 3 10 8 10 11 0 2 -4 4 -10 4 -5 0 -10
-5 -10 -11z"/>
<path d="M2491 1962 c-7 -13 -6 -19 2 -19 7 0 13 9 13 19 0 10 -1 18 -3 18 -1
0 -7 -8 -12 -18z"/>
<path d="M2496 1882 c-2 -4 -1 -14 4 -22 7 -11 9 -9 7 8 -1 24 -3 26 -11 14z"/>
<path d="M66 1838 c3 -4 11 -5 19 -1 21 7 19 12 -4 10 -11 0 -18 -5 -15 -9z"/>
<path d="M2508 1823 c7 -3 16 -2 19 1 4 3 -2 6 -13 5 -11 0 -14 -3 -6 -6z"/>
<path d="M35 1800 c3 -5 8 -10 11 -10 2 0 4 5 4 10 0 6 -5 10 -11 10 -5 0 -7
-4 -4 -10z"/>
<path d="M2487 1797 c-3 -8 1 -14 8 -14 7 0 11 6 8 14 -3 7 -6 13 -8 13 -2 0
-5 -6 -8 -13z"/>
<path d="M73 1777 c0 -8 6 -14 14 -14 9 0 10 4 2 14 -6 7 -12 13 -14 13 -1 0
-2 -6 -2 -13z"/>
<path d="M66 1718 c3 -4 9 -8 15 -8 5 0 9 4 9 8 0 5 -7 9 -15 9 -8 0 -12 -4
-9 -9z"/>
<path d="M2507 1711 c-4 -17 -3 -21 5 -13 5 5 8 16 6 23 -3 8 -7 3 -11 -10z"/>
<path d="M73 1675 c0 -8 4 -12 9 -9 5 3 6 10 3 15 -9 13 -12 11 -12 -6z"/>
<path d="M2506 1657 c3 -10 9 -15 12 -12 3 3 0 11 -7 18 -10 9 -11 8 -5 -6z"/>
<path d="M2487 1637 c-3 -8 1 -14 8 -14 7 0 11 6 8 14 -3 7 -6 13 -8 13 -2 0
-5 -6 -8 -13z"/>
<path d="M2507 1551 c-4 -17 -3 -21 5 -13 5 5 8 16 6 23 -3 8 -7 3 -11 -10z"/>
<path d="M70 1556 c0 -2 7 -7 16 -10 8 -3 12 -2 9 4 -6 10 -25 14 -25 6z"/>
<path d="M90 1520 c0 -5 5 -10 11 -10 5 0 7 5 4 10 -3 6 -8 10 -11 10 -2 0 -4
-4 -4 -10z"/>
<path d="M2506 1497 c3 -10 9 -15 12 -12 3 3 0 11 -7 18 -10 9 -11 8 -5 -6z"/>
<path d="M77 1481 c-4 -17 -3 -21 5 -13 5 5 8 16 6 23 -3 8 -7 3 -11 -10z"/>
<path d="M2487 1477 c-3 -8 1 -14 8 -14 7 0 11 6 8 14 -3 7 -6 13 -8 13 -2 0
-5 -6 -8 -13z"/>
<path d="M2507 1391 c-4 -17 -3 -21 5 -13 5 5 8 16 6 23 -3 8 -7 3 -11 -10z"/>
<path d="M2487 1196 c-4 -10 -1 -13 9 -9 15 6 19 23 5 23 -5 0 -11 -7 -14 -14z"/>
<path d="M50 1179 c0 -5 5 -7 10 -4 6 3 10 8 10 11 0 2 -4 4 -10 4 -5 0 -10
-5 -10 -11z"/>
<path d="M82 1101 c-11 -7 -11 -9 0 -14 9 -3 15 1 15 9 0 8 -1 14 -1 14 -1 0
-7 -4 -14 -9z"/>
<path d="M2505 1060 c-3 -6 1 -7 9 -4 18 7 21 14 7 14 -6 0 -13 -4 -16 -10z"/>
<path d="M70 919 c0 -5 5 -7 10 -4 6 3 10 8 10 11 0 2 -4 4 -10 4 -5 0 -10 -5
-10 -11z"/>
<path d="M2505 900 c-3 -6 1 -7 9 -4 18 7 21 14 7 14 -6 0 -13 -4 -16 -10z"/>
<path d="M64 843 c4 -4 16 -8 28 -10 28 -4 18 6 -12 12 -12 2 -20 1 -16 -2z"/>
<path d="M56 807 c3 -10 9 -15 12 -12 3 3 0 11 -7 18 -10 9 -11 8 -5 -6z"/>
<path d="M90 800 c-9 -6 -10 -10 -3 -10 6 0 15 5 18 10 8 12 4 12 -15 0z"/>
<path d="M2505 740 c-3 -6 1 -7 9 -4 18 7 21 14 7 14 -6 0 -13 -4 -16 -10z"/>
<path d="M81 674 c0 -11 3 -14 6 -6 3 7 2 16 -1 19 -3 4 -6 -2 -5 -13z"/>
<path d="M2486 638 c3 -4 9 -8 15 -8 5 0 9 4 9 8 0 5 -7 9 -15 9 -8 0 -12 -4
-9 -9z"/>
<path d="M2465 564 c-9 -15 -12 -23 -6 -20 11 7 35 46 28 46 -3 0 -12 -12 -22
-26z"/>
<path d="M86 558 c3 -5 10 -6 15 -3 13 9 11 12 -6 12 -8 0 -12 -4 -9 -9z"/>
<path d="M583 529 c9 -6 14 -15 11 -21 -4 -7 -2 -8 5 -4 14 9 -3 36 -23 36 -6
0 -3 -5 7 -11z"/>
<path d="M1050 536 c0 -2 7 -7 16 -10 8 -3 12 -2 9 4 -6 10 -25 14 -25 6z"/>
<path d="M2010 536 c0 -2 7 -7 16 -10 8 -3 12 -2 9 4 -6 10 -25 14 -25 6z"/>
<path d="M536 514 c-5 -13 -4 -14 7 -6 8 7 18 8 22 4 5 -4 5 -1 1 6 -10 17
-23 15 -30 -4z"/>
<path d="M780 526 c0 -2 9 -6 20 -9 11 -3 18 -1 14 4 -5 9 -34 13 -34 5z"/>
<path d="M1025 520 c3 -5 11 -10 16 -10 6 0 7 5 4 10 -3 6 -11 10 -16 10 -6 0
-7 -4 -4 -10z"/>
<path d="M1499 513 c-13 -16 -12 -17 4 -4 16 13 21 21 13 21 -2 0 -10 -8 -17
-17z"/>
<path d="M1819 513 c-13 -16 -12 -17 4 -4 16 13 21 21 13 21 -2 0 -10 -8 -17
-17z"/>
<path d="M1985 520 c3 -5 11 -10 16 -10 6 0 7 5 4 10 -3 6 -11 10 -16 10 -6 0
-7 -4 -4 -10z"/>
<path d="M1135 511 c-3 -5 -2 -12 3 -15 5 -3 9 1 9 9 0 17 -3 19 -12 6z"/>
<path d="M2095 511 c-3 -5 -2 -12 3 -15 5 -3 9 1 9 9 0 17 -3 19 -12 6z"/>
<path d="M2266 498 c3 -5 10 -6 15 -3 13 9 11 12 -6 12 -8 0 -12 -4 -9 -9z"/>
<path d="M233 485 c0 -8 4 -12 9 -9 5 3 6 10 3 15 -9 13 -12 11 -12 -6z"/>
<path d="M1430 479 c0 -5 5 -7 10 -4 6 3 10 8 10 11 0 2 -4 4 -10 4 -5 0 -10
-5 -10 -11z"/>
<path d="M1750 479 c0 -5 5 -7 10 -4 6 3 10 8 10 11 0 2 -4 4 -10 4 -5 0 -10
-5 -10 -11z"/>
</g>
</svg>
