<svg id="_x38_" xmlns="http://www.w3.org/2000/svg" width="91.918" height="106.103" viewBox="0 0 91.918 106.103">
  <path id="XMLID_36_" d="M55.873,52.338l.143,4.429c0-.019.007-.046.007-.065,0,.42.143,8.509,10.843,18.266,10.992,10.022,18.428,25.863,18.428,25.863l-3.427-28.56-.129-1.383A15.3,15.3,0,0,1,71.191,68.47c-4.649-2.832-12.337-5.548-14.03-10.559a18.354,18.354,0,0,1-1.274-5.567A.025.025,0,0,0,55.873,52.338Z" transform="translate(-16.65 -8.953)" fill="#f2f2f2"/>
  <path id="XMLID_41_" d="M9.306,115.957h91.167s-1.616-6.142-1.616-18.1c0-11.011-21.273-22.669-24.641-24.447-.291-.155-.446-.233-.446-.233l3.427,28.56S69.761,85.89,58.769,75.868C48.069,66.112,47.926,58.023,47.926,57.6c0,.019.541,3.13.541,3.15-.439,5.419-10.8,9.685-27.523,21.905C4.134,94.943,9.306,115.957,9.306,115.957Z" transform="translate(-8.555 -9.854)" fill="#cbcbcb"/>
  <path id="XMLID_40_" d="M46.184,40.334c1.194,7.289,7.33,8.089,7.33,8.089a1.6,1.6,0,0,0-.048.559,18.345,18.345,0,0,0,1.5,5.51c1.9,4.936,9.693,7.332,14.456,9.969a15.3,15.3,0,0,0,10.637,1.98,13.942,13.942,0,0,0,2.047-.577c3.652-1.342,6.13-24.657,5.44-26.3s-.33-7.648-.33-7.648a12.52,12.52,0,0,0,.234-4.52,19,19,0,0,0-1.5-5.523c-2.534-5.875-18.481-4.192-23.654-2.528,2.025,3.268-2.464,13.187-4.707,15.868S51.576,36.8,51.576,36.8c-1.257-2.226-3.793-3.157-4.966-1.316C46.04,36.38,45.794,37.943,46.184,40.334Z" transform="translate(-14.96 -3.039)" fill="#f2f2f2"/>
  <path id="XMLID_50_" d="M45.617,31.195a3.182,3.182,0,0,0,.749,1.253c1.173-1.839,3.714-.907,4.971,1.32l2.034,3.745,2.562-.35a42.607,42.607,0,0,1,1.422-5c2.241-2.677,6.732-12.6,4.7-15.867,5.177-1.66,21.12-3.343,23.655,2.532a19.056,19.056,0,0,1,1.495,5.518,51.765,51.765,0,0,1,1.9-5.627C90.522,15.5,90.55,8.958,84.235,6.576S68.013-5.849,54.131,4.8C45.575,5.1,42.862,23.1,45.617,31.195Z" transform="translate(-14.719 0.001)" fill="#e0e0e0"/>
</svg>
