<svg xmlns="http://www.w3.org/2000/svg" width="105.32" height="79" viewBox="0 0 105.32 79">
  <g id="checklist" transform="translate(0 -7.997)">
    <path id="Path_30" data-name="Path 30" d="M103.893,10.284H93.031V9.424A1.426,1.426,0,0,0,91.6,8H69.8a1.426,1.426,0,0,0-1.427,1.427v.861H57.51a1.431,1.431,0,0,0-1.427,1.427V60.767l-8.648-3.244V52.579a23.175,23.175,0,0,0,1.108-4.445c.056-.313.109-.612.151-.854.049.007.1.013.15.016,3.457.278,3.77-3.156,3.992-5.671.3-3.439.262-5.839-.859-7.167a2.612,2.612,0,0,0-1.21-.813c.415-3.711.517-10.488-3.255-15.215-2.649-3.321-6.683-5.006-11.993-5.006-6.42,0-11.251,1.71-14.36,5.08a15.23,15.23,0,0,0-3.647,11.4,36.65,36.65,0,0,0,.609,4.193c-1.869,1.372-1.55,5.083-1.361,7.251.225,2.562.6,4.349,1.784,5.335a3.07,3.07,0,0,0,2.322.671c.051,0,.1-.01.156-.018.046.25.092.513.142.79A23,23,0,0,0,22.29,52.61v4.914L8.355,62.75a1.167,1.167,0,0,0-.166.076C4.734,64.656,1.262,66.8.053,71.133A1.437,1.437,0,0,0,0,71.517V85.57A1.426,1.426,0,0,0,1.427,87H68.3a1.426,1.426,0,0,0,1.427-1.427V77.054h34.165a1.412,1.412,0,0,0,1.427-1.427V11.711A1.421,1.421,0,0,0,103.893,10.284Zm-32.666.566H90.177v4.57H71.228ZM58.937,13.138h9.438v2.154H61.505a.715.715,0,0,0-.713.713V62.533l-1.855-.7v-48.7ZM25.145,55.909c2.278,1.787,6.584,4.552,9.711,4.552s7.465-2.784,9.727-4.565v2.026l-9.717,9.719-9.719-9.719V55.909ZM23.259,20.438c2.546-2.761,6.671-4.162,12.262-4.162,4.394,0,7.677,1.32,9.757,3.925,2.472,3.092,2.911,7.474,2.811,10.789L44.49,26.7a1.426,1.426,0,0,0-1.8-.323c-.056.031-5.649,3.115-16.451-.643a1.426,1.426,0,0,0-1.892,1.425c.148,2.691-1.985,4.585-3.568,5.613-.171-.948-.329-2.011-.418-3.1C20.253,28.362,20.147,23.813,23.259,20.438Zm-2.4,23.942a.509.509,0,0,1-.237.135.488.488,0,0,1-.242-.02c-.153-.127-.533-.714-.77-3.395-.27-3.089-.043-4.155.109-4.516,0,0,1.759-.662,1.707-.862,1.762-.976,4.894-3.168,5.63-6.726,8.327,2.495,13.739,1.18,15.941.355l4.71,5.612c-.074.433,2.011,1.208,2.011,1.208l.086.12v0c.176.193.548,1.071.2,5.08-.211,2.381-.477,2.951-.6,3.066a.823.823,0,0,1-.309.012.35.35,0,0,1-.171-.1,1.426,1.426,0,0,0-2.22.416,6.871,6.871,0,0,0-.769,1.812c-.063.324-.125.68-.193,1.052a15.7,15.7,0,0,1-1.185,4.419,6.873,6.873,0,0,1-1.256,1.223c-2.549,2.128-6.4,4.33-8.437,4.33s-5.89-2.2-8.447-4.336a7.122,7.122,0,0,1-1.239-1.2,15.78,15.78,0,0,1-1.195-4.437c-.066-.37-.128-.724-.181-.991a6.518,6.518,0,0,0-.741-1.813,1.431,1.431,0,0,0-2.2-.451Zm46.02,39.763H2.854V71.721C3.711,68.9,5.847,67.3,9.446,65.39L23.36,60.172l10.5,10.5a1.469,1.469,0,0,0,2.018,0l10.5-10.5L60.286,65.39c3.6,1.912,5.735,3.512,6.592,6.331V84.143ZM62.22,63.2V16.719h6.155v.128A1.426,1.426,0,0,0,69.8,18.274H91.6a1.426,1.426,0,0,0,1.427-1.427v-.128h6.155v54.3H69.635C68.476,67.054,65.407,64.936,62.22,63.2Zm40.247,11H69.729V72.446H99.9a.724.724,0,0,0,.713-.713V16a.714.714,0,0,0-.713-.713H93.031V13.138h9.436V74.2ZM94.675,31.148H74.417V28.294H94.675Zm-27.372.79-2.315-2.315L67.005,27.6l1.307,1.307,3.273-3.272L73.6,27.657l-4.282,4.28a1.426,1.426,0,0,1-2.018,0Zm27.372,9.2H74.417V38.281H94.675Zm-27.372.79L64.987,39.61l2.018-2.018L68.312,38.9l3.273-3.272L73.6,37.645l-4.282,4.28a1.426,1.426,0,0,1-2.018,0Zm0,9.987L64.987,49.6l2.018-2.018,1.307,1.307,3.273-3.272L73.6,47.632l-4.282,4.28a1.426,1.426,0,0,1-2.018,0Zm27.372-.79H74.417V48.269H94.675ZM69.32,61.9a1.426,1.426,0,0,1-2.018,0l-2.315-2.315,2.018-2.018,1.307,1.307L71.585,55.6,73.6,57.619Zm25.354-.79H74.417V58.256H94.675Z" transform="translate(0 0)" fill="#231f20"/>
  </g>
</svg>
