<svg xmlns="http://www.w3.org/2000/svg" width="90.439" height="79" viewBox="0 0 90.439 79">
  <g id="likes" transform="translate(0 -4.049)">
    <path id="Path_28" data-name="Path 28" d="M28.678,80.46c.911,0,18.151.092,18.151.092l-.013,2.494s-17.229-.092-18.14-.092c-2.808,0-5.229-1.382-7.364-2.6-1.552-.886-3.016-1.723-4.169-1.723V76.136c1.814,0,3.56,1,5.405,2.05C24.508,79.3,26.533,80.46,28.678,80.46ZM61.93,63.451a5.168,5.168,0,0,0-2.2-4.225,5.271,5.271,0,0,0,1.444-3.639,5.09,5.09,0,0,0-4.983-5.179H40.545a2.009,2.009,0,0,1-2-1.8,4.9,4.9,0,0,1,.223-.514,12.783,12.783,0,0,0,1.211-6.147c0-5-.927-7.008-3.144-9.878a5.055,5.055,0,0,0-5.568-1.9,3.459,3.459,0,0,0-2.433,3.331v2.08c0,.948.023,1.766.04,2.494.095,3.575.117,4.424-2.72,7.617a1.321,1.321,0,0,0-.109.14l-3.842,5.8H17.1v2.494h5.767a1.248,1.248,0,0,0,1.04-.558l4.164-6.288C31.51,43.393,31.464,41.7,31.367,38c-.02-.708-.04-1.5-.04-2.428V33.5a.971.971,0,0,1,.745-.972,2.607,2.607,0,0,1,2.789,1.07c1.824,2.361,2.623,3.865,2.623,8.353a10.4,10.4,0,0,1-.974,5.084,4.115,4.115,0,0,0-.462,1.4,1.21,1.21,0,0,0,0,.175,4.5,4.5,0,0,0,4.5,4.293H56.188a2.693,2.693,0,0,1,0,5.371H47.536v2.494h9.216a2.686,2.686,0,0,1,0,5.371H47.536v2.494h7.908A2.685,2.685,0,0,1,55.432,74H46.867v2.494h6.608a2.029,2.029,0,0,1-.011,4.058h-6.6v2.494h6.6a4.5,4.5,0,0,0,3.825-6.912,5.131,5.131,0,0,0,2.025-8.21A5.17,5.17,0,0,0,61.93,63.451ZM16.911,49.989V80.265a1.246,1.246,0,0,1-1.246,1.246H1.246A1.246,1.246,0,0,1,0,80.265V49.989a1.246,1.246,0,0,1,1.246-1.246H15.664A1.245,1.245,0,0,1,16.911,49.989Zm-2.493,1.246H2.494V79.017H14.418ZM90.439,5.3V34.131a1.246,1.246,0,0,1-1.246,1.246H59.54l-5.682,7.574a2.646,2.646,0,0,1-2.13,1.08,2.75,2.75,0,0,1-.869-.143,2.651,2.651,0,0,1-1.84-2.551V35.376H45.94a1.246,1.246,0,0,1-1.246-1.246V5.3A1.246,1.246,0,0,1,45.94,4.049H89.193A1.247,1.247,0,0,1,90.439,5.3ZM87.945,6.543H47.187V32.885h3.078a1.246,1.246,0,0,1,1.246,1.246V41.34a.195.195,0,0,0,.35.117l6.058-8.075a1.249,1.249,0,0,1,1-.5h29.03V6.543ZM9.7,54.315H7.21v5.768H9.7V54.315Zm48.21-37.026a1.246,1.246,0,0,1,.732-2.255h5.91l1.826-5.62a1.247,1.247,0,0,1,2.371,0l1.826,5.62h5.91a1.246,1.246,0,0,1,.732,2.255l-4.781,3.473,1.826,5.621a1.247,1.247,0,0,1-1.92,1.393L67.562,24.3l-4.778,3.472a1.247,1.247,0,0,1-1.919-1.393l1.826-5.621Zm4.57.239,2.409,1.751a1.247,1.247,0,0,1,.454,1.393l-.92,2.833,2.409-1.749a1.246,1.246,0,0,1,1.467,0L70.711,23.5l-.92-2.833a1.244,1.244,0,0,1,.454-1.393l2.409-1.751H69.675a1.246,1.246,0,0,1-1.186-.861l-.92-2.833-.92,2.833a1.247,1.247,0,0,1-1.186.861H62.482Z" transform="translate(0)" fill="#231f20"/>
  </g>
</svg>
